<svg width="8" height="13" viewBox="0 0 8 13" fill="none" xmlns="http://www.w3.org/2000/svg">
<path d="M7.46578 8.517C7.46578 9.20167 7.20578 9.78233 6.68578 10.259C6.17445 10.7357 5.42911 11.013 4.44978 11.091V12.56H3.61778V11.091C2.98511 11.0563 2.38278 10.9393 1.81078 10.74C1.24745 10.532 0.796781 10.272 0.458781 9.96L0.939781 8.946C1.25178 9.232 1.64611 9.47033 2.12278 9.661C2.59945 9.843 3.09778 9.95133 3.61778 9.986V6.97C3.01111 6.82267 2.50411 6.66233 2.09678 6.489C1.69811 6.31567 1.36011 6.06 1.08278 5.722C0.814115 5.384 0.679781 4.942 0.679781 4.396C0.679781 3.71133 0.926781 3.13067 1.42078 2.654C1.92345 2.17733 2.65578 1.9 3.61778 1.822V0.339999H4.44978V1.809C4.94378 1.82633 5.42045 1.90433 5.87978 2.043C6.34778 2.18167 6.75078 2.368 7.08878 2.602L6.65978 3.642C5.95778 3.2 5.22111 2.95733 4.44978 2.914V5.943C5.08245 6.099 5.60245 6.26367 6.00978 6.437C6.41712 6.60167 6.75945 6.853 7.03678 7.191C7.32278 7.52033 7.46578 7.96233 7.46578 8.517ZM1.95378 4.344C1.95378 4.71667 2.09678 5.007 2.38278 5.215C2.66878 5.423 3.08045 5.59633 3.61778 5.735V2.927C3.06311 2.99633 2.64711 3.161 2.36978 3.421C2.09245 3.67233 1.95378 3.98 1.95378 4.344ZM4.44978 9.973C5.03045 9.921 5.46378 9.77367 5.74978 9.531C6.04445 9.27967 6.19178 8.96767 6.19178 8.595C6.19178 8.21367 6.04011 7.92333 5.73678 7.724C5.44211 7.516 5.01311 7.334 4.44978 7.178V9.973Z" fill="#205EFF"/>
</svg>
