<svg width="18" height="18" viewBox="0 0 18 18" fill="none" xmlns="http://www.w3.org/2000/svg">
<path d="M17.729 11.1771C16.5269 15.9985 11.6436 18.9328 6.82153 17.7305C2.00147 16.5284 -0.932814 11.6448 0.269811 6.82361C1.47131 2.00158 6.35465 -0.932983 11.1753 0.26908C15.997 1.47114 18.931 6.35533 17.729 11.1771Z" fill="url(#paint0_linear)"/>
<path d="M12.9659 7.71783C13.145 6.52027 12.2332 5.87649 10.9864 5.44702L11.3909 3.82477L10.4034 3.57867L10.0097 5.15817C9.75006 5.09349 9.48343 5.03245 9.21849 4.97199L9.61506 3.38208L8.62815 3.13599L8.22343 4.75767C8.00855 4.70874 7.79762 4.66036 7.59287 4.60945L7.59399 4.60439L6.23218 4.26436L5.96949 5.31905C5.96949 5.31905 6.70215 5.48695 6.68668 5.49736C7.08662 5.5972 7.1589 5.86186 7.1468 6.07167C6.03868 10.5157 7.1468 6.07167 6.03868 10.5157C5.98974 10.6372 5.86571 10.8195 5.58614 10.7503C5.59599 10.7646 4.86839 10.5711 4.86839 10.5711L4.37817 11.7015L5.66321 12.0218C5.90227 12.0817 6.13655 12.1444 6.36718 12.2035L5.95852 13.8443L6.94486 14.0904L7.34958 12.467C7.61902 12.5401 7.88058 12.6076 8.13652 12.6712L7.73321 14.287L8.72068 14.5331L9.12934 12.8954C10.8132 13.214 12.0794 13.0855 12.6123 11.5625C13.0418 10.3363 12.591 9.62892 11.705 9.16767C12.3502 9.01889 12.8362 8.59449 12.9659 7.71783ZM10.7097 10.8816C10.4045 12.1079 8.33987 11.445 7.67049 11.2787L8.21274 9.10495C8.88212 9.27202 11.0286 9.60277 10.7097 10.8816ZM11.0151 7.70011C10.7367 8.81555 9.01824 8.24883 8.4608 8.10989L8.95243 6.13833C9.50987 6.27727 11.3051 6.53658 11.0151 7.70011Z" fill="white"/>
<defs>
<linearGradient id="paint0_linear" x1="0.000244141" y1="-0.000244141" x2="0.000244141" y2="17.9999" gradientUnits="userSpaceOnUse">
<stop stop-color="#F9AA4B"/>
<stop offset="1" stop-color="#F7931A"/>
</linearGradient>
</defs>
</svg>
